<svg xmlns="http://www.w3.org/2000/svg" xmlns:xlink="http://www.w3.org/1999/xlink" width="62.254" height="72.222" viewBox="0 0 62.254 72.222">
  <defs>
    <clipPath id="clip-path">
      <path id="Path_24250" data-name="Path 24250" d="M1137.213,3357.882l-1.312,2.683-2.935.431a1.422,1.422,0,0,0-.718.327,1.45,1.45,0,0,0-.44.66,1.47,1.47,0,0,0-.028.8,1.45,1.45,0,0,0,.391.69l2.123,2.089-.5,2.95a1.463,1.463,0,0,0,.085.791,1.448,1.448,0,0,0,.486.626,1.422,1.422,0,0,0,1.511.11l2.625-1.392,2.625,1.392a1.421,1.421,0,0,0,1.512-.109,1.445,1.445,0,0,0,.486-.627,1.463,1.463,0,0,0,.085-.791l-.5-2.95,2.122-2.089a1.457,1.457,0,0,0-.077-2.145,1.418,1.418,0,0,0-.718-.327l-2.934-.431-1.313-2.683a1.455,1.455,0,0,0-.529-.59,1.427,1.427,0,0,0-1.516,0A1.457,1.457,0,0,0,1137.213,3357.882Z" fill="none" clip-rule="evenodd"/>
    </clipPath>
  </defs>
  <g id="Group_3691" data-name="Group 3691" transform="translate(-1107.373 -3312.891)">
    <path id="Path_24243" data-name="Path 24243" d="M1111.544,3319.084a3.4,3.4,0,0,1,5.358-4.2l17.5,22.348a3.4,3.4,0,0,1-5.357,4.195Z" fill="#dfdfdf"/>
    <path id="Path_24244" data-name="Path 24244" d="M1158.857,3316.679a3.4,3.4,0,1,1,5.321,4.241l-17.691,22.2a3.4,3.4,0,1,1-5.321-4.242Z" fill="#dfdfdf"/>
    <path id="Path_24245" data-name="Path 24245" d="M1154.869,3363.638a16.369,16.369,0,1,1-16.369-16.368A16.37,16.37,0,0,1,1154.869,3363.638Z" fill="#dfdfdf"/>
    <path id="Path_24246" data-name="Path 24246" d="M1156.9,3363.638a18.7,18.7,0,0,1-3.1,10.318,18.438,18.438,0,0,1-8.256,6.84,18.268,18.268,0,0,1-20.048-4.026,18.667,18.667,0,0,1,2.788-28.573,18.247,18.247,0,0,1,23.222,2.315A18.679,18.679,0,0,1,1156.9,3363.638Zm12.2-50.424a1.43,1.43,0,0,0-2.019.218L1143.6,3342.8a20.879,20.879,0,0,0-8.039-.42l21.681-27.127a1.459,1.459,0,0,0-.215-2.039,1.428,1.428,0,0,0-2.02.218l-16.51,20.656-16.507-20.654a1.449,1.449,0,0,0-.43-.362,1.423,1.423,0,0,0-1.59.145,1.448,1.448,0,0,0-.526.974,1.457,1.457,0,0,0,.31,1.065l16.9,21.142-4.189,5.24-22.54-28.2a1.441,1.441,0,0,0-.431-.362,1.422,1.422,0,0,0-1.589.145,1.448,1.448,0,0,0-.526.974,1.471,1.471,0,0,0,.05.564,1.452,1.452,0,0,0,.261.5l22.785,28.506a21.338,21.338,0,0,0-10.689,9.679,21.609,21.609,0,0,0,5.2,26.781,21.114,21.114,0,0,0,27.032,0,21.549,21.549,0,0,0-5.493-36.46l22.785-28.509a1.457,1.457,0,0,0-.216-2.037Z" fill="#494b9f"/>
    <path id="Path_24247" data-name="Path 24247" d="M1150.221,3363.638a11.907,11.907,0,0,1-1.975,6.574,11.753,11.753,0,0,1-5.26,4.359,11.643,11.643,0,0,1-12.774-2.565,11.895,11.895,0,0,1,1.776-18.206,11.624,11.624,0,0,1,14.8,1.475A11.9,11.9,0,0,1,1150.221,3363.638Zm-26.314,0a14.83,14.83,0,0,0,2.46,8.185,14.622,14.622,0,0,0,6.549,5.426,14.491,14.491,0,0,0,15.9-3.194,14.807,14.807,0,0,0-2.211-22.665,14.473,14.473,0,0,0-18.42,1.837A14.82,14.82,0,0,0,1123.907,3363.638Z" fill="#494b9f"/>
    <path id="Path_24248" data-name="Path 24248" d="M1137.67,3359.925l-.847,1.731-1.893.278a.92.92,0,0,0-.463.21.943.943,0,0,0-.05,1.385l1.369,1.347-.322,1.9a.931.931,0,0,0,.845,1.09.925.925,0,0,0,.5-.105l1.693-.9,1.694.9a.918.918,0,0,0,.975-.071.928.928,0,0,0,.314-.4.947.947,0,0,0,.055-.51l-.323-1.9,1.369-1.347a.939.939,0,0,0,.234-.959.935.935,0,0,0-.283-.426.924.924,0,0,0-.464-.21l-1.893-.278-.847-1.731a.922.922,0,0,0-1.661,0Z" fill="#fefefe"/>
    <g id="Group_3690" data-name="Group 3690">
      <g id="Group_3689" data-name="Group 3689" clip-path="url(#clip-path)">
        <path id="Path_24249" data-name="Path 24249" d="M1136.679,3355.6a3.445,3.445,0,0,0-1.263,1.407l3.594,1.754a.555.555,0,0,1-.2.226Zm1.822-.525a3.43,3.43,0,0,0-1.822.525l2.128,3.387a.578.578,0,0,1-.306.088Zm1.822.525a3.433,3.433,0,0,0-1.822-.525v4a.573.573,0,0,1-.306-.088Zm1.262,1.407a3.433,3.433,0,0,0-1.262-1.407l-2.128,3.387a.564.564,0,0,1-.2-.226Zm1.312,2.681-1.312-2.683-3.594,1.757,1.313,2.684Zm1.428-.67-2.934-.43-.581,3.957,2.934.431Zm1.725.784a3.424,3.424,0,0,0-1.723-.783l-.585,3.957a.573.573,0,0,1-.286-.13Zm1.047,1.569a3.447,3.447,0,0,0-1.047-1.569l-2.594,3.044a.54.54,0,0,1-.167-.249Zm.067,1.882a3.468,3.468,0,0,0-.067-1.882l-3.808,1.226a.539.539,0,0,1-.011-.292Zm-.929,1.64a3.449,3.449,0,0,0,.929-1.64l-3.886-.948a.551.551,0,0,1,.148-.26Zm-2.125,2.091,2.123-2.089-2.806-2.851-2.122,2.089Zm1.07,1.19-.5-2.95-3.943.669.5,2.95Zm-.2,1.873a3.453,3.453,0,0,0,.2-1.875l-3.943.673a.541.541,0,0,1,.032-.292Zm-1.158,1.492a3.454,3.454,0,0,0,1.158-1.492l-3.71-1.494a.552.552,0,0,1,.186-.24Zm-1.779.655a3.436,3.436,0,0,0,1.779-.655l-2.366-3.226a.584.584,0,0,1,.3-.109Zm-1.855-.393a3.425,3.425,0,0,0,1.855.393l-.289-3.99a.57.57,0,0,1,.312.066Zm-2.623-1.391,2.625,1.392,1.874-3.533-2.625-1.393Zm-.751,1.392,2.625-1.392-1.874-3.534-2.625,1.393Zm-1.853.391a3.42,3.42,0,0,0,1.854-.391l-1.876-3.533a.59.59,0,0,1,.312-.066Zm-1.778-.655a3.431,3.431,0,0,0,1.778.655l.29-3.99a.576.576,0,0,1,.3.11Zm-1.158-1.492a3.441,3.441,0,0,0,1.158,1.492l2.366-3.225a.548.548,0,0,1,.186.239Zm-.2-1.873a3.456,3.456,0,0,0,.2,1.873l3.71-1.494a.541.541,0,0,1,.032.292Zm.5-2.949-.5,2.95,3.944.669.5-2.95Zm-1.554-.329,2.123,2.089,2.805-2.851-2.123-2.089Zm-.931-1.642a3.449,3.449,0,0,0,.929,1.64l2.809-2.848a.55.55,0,0,1,.148.26Zm.068-1.882a3.45,3.45,0,0,0-.068,1.882l3.886-.948a.538.538,0,0,1-.011.292Zm1.046-1.569a3.435,3.435,0,0,0-1.046,1.569l3.807,1.226a.54.54,0,0,1-.167.249Zm1.723-.783a3.423,3.423,0,0,0-1.723.783l2.594,3.044a.574.574,0,0,1-.286.13Zm2.936-.431-2.934.43.581,3.958,2.934-.431Zm-.193-1.583-1.313,2.683,3.593,1.758,1.313-2.684Zm3.084.07v0Zm1.287.809-1.8.877h0Zm1.312,2.683-1.8.879.463.946,1.043.153Zm2.935.43.292-1.978h0Zm.795,2.472,1.4,1.426,0,0Zm-2.122,2.09-1.4-1.426-.744.732.175,1.028Zm.5,2.949-1.972.335v0Zm-2.083,1.527.939-1.765h0Zm-2.625-1.392.937-1.767-.937-.5-.937.5Zm-2.625,1.392-.937-1.766h0Zm-2.082-1.527,1.972.336h0Zm.5-2.949,1.971.334.175-1.028-.744-.732Zm-2.123-2.09-1.405,1.424,0,0Zm.795-2.472-.29-1.979h0Zm2.935-.43.29,1.978,1.043-.153.463-.946Zm1.312-2.683,1.8.878h0Z" fill="#494b9f"/>
      </g>
    </g>
  </g>
</svg>
