<svg xmlns="http://www.w3.org/2000/svg" width="74.997" height="74.997" viewBox="0 0 74.997 74.997">
  <g id="Group_3688" data-name="Group 3688" transform="translate(-477.463 -3270.219)">
    <circle id="Ellipse_571" data-name="Ellipse 571" cx="21.933" cy="21.933" r="21.933" transform="translate(490.946 3287.978)" fill="#dfdfdf"/>
    <path id="Path_24241" data-name="Path 24241" d="M527.2,3285.986,538,3275.122l1.963,7.57,7.5,1.822-11.355,10.934-7.5-1.822Z" fill="#dfdfdf"/>
    <path id="Path_24242" data-name="Path 24242" d="M540.875,3290.33l-4.67,4.669-.7-.158-.027-.006-6.231-1.4-1.571-6.955,12.536-12.538,1.4,6.19a1.244,1.244,0,0,0,.94.94l6.189,1.4Zm-23.35,13.064a7.87,7.87,0,1,0,1.759,1.76l6.3-6.3a16.72,16.72,0,1,1-1.759-1.759Zm.765,6.345a5.371,5.371,0,1,1-2.556-4.554l-3.674,3.674a1.244,1.244,0,0,0-.279.4,1.259,1.259,0,0,0-.1.48,1.243,1.243,0,0,0,2.139.875l3.675-3.674A5.305,5.305,0,0,1,518.29,3309.739Zm16.105-12.594a24.858,24.858,0,1,1-8.864-8.872l1.311,5.8-1.257,1.257a19.227,19.227,0,1,0,1.759,1.76l1.257-1.257Zm11.541,12.594a32.992,32.992,0,1,1-16.476-28.565l-4.027,4.027a1.172,1.172,0,0,0-.1.125,27.419,27.419,0,1,0,12.01,12.027,1.351,1.351,0,0,0,.13-.106l4.028-4.028A32.886,32.886,0,0,1,545.936,3309.739Zm6.474-28.335a1.242,1.242,0,0,0-.924-.867l-7.625-1.723-1.723-7.624a1.244,1.244,0,0,0-2.093-.606l-8.769,8.771a35.485,35.485,0,1,0,12.047,12.048l8.773-8.773a1.247,1.247,0,0,0,.314-1.226Z" fill="#494b9f"/>
  </g>
</svg>
