<svg xmlns="http://www.w3.org/2000/svg" width="77" height="76.996" viewBox="0 0 77 76.996">
  <g id="Group_3687" data-name="Group 3687" transform="translate(-2326.488 -3378.091)">
    <path id="Path_24233" data-name="Path 24233" d="M2399.905,3386.048c-22.014,2.457-40.546,26.136-47.059,37.668l7.178,7.984C2381.719,3426.3,2395.651,3399.014,2399.905,3386.048Z" fill="#dfdfdf"/>
    <path id="Path_24234" data-name="Path 24234" d="M2337.487,3411.764c3.322-3.193,10.043-9.641,10.352-9.889h12.67l-6.876,8.421C2351.594,3410.049,2342.019,3411.172,2337.487,3411.764Z" fill="#e2e3ff"/>
    <path id="Path_24235" data-name="Path 24235" d="M2370.552,3443.593l1-16.378,9.271-6.1v13.134Z" fill="#dfdfdf"/>
    <path id="Path_24236" data-name="Path 24236" d="M2360.81,3430.088l-9.32-9.32c11.735-28.67,40.066-37.121,48.292-39C2397.931,3390.022,2389.528,3418.337,2360.81,3430.088Zm18,2.93-11.107,11.107.966-14.262a62.992,62.992,0,0,0,10.672-7.389Zm-41.242-19.027,11.108-11.108,10.318-.531a63.088,63.088,0,0,0-7.357,10.673Zm64.556-35.881a1.588,1.588,0,0,0-.488,0,78.175,78.175,0,0,0-39.551,20.926l-14.2.725a1.611,1.611,0,0,0-1.063.466l-14.584,14.585a1.609,1.609,0,0,0,1.143,2.753h.113l16.435-1.127c-.644,1.352-1.255,2.736-1.819,4.185a1.61,1.61,0,0,0,.354,1.722l10.818,10.818a1.608,1.608,0,0,0,1.722.354c1.5-.579,2.914-1.223,4.314-1.883l-1.126,16.613a1.609,1.609,0,0,0,2.736,1.239l14.585-14.584a1.612,1.612,0,0,0,.466-1.063l.741-14.488a78.2,78.2,0,0,0,20.75-39.406A1.61,1.61,0,0,0,2402.121,3378.11Z" fill="#494b9f"/>
    <path id="Path_24237" data-name="Path 24237" d="M2344.278,3423.006a1.617,1.617,0,0,0-2.286-.017l-14.938,14.874a1.64,1.64,0,1,0,2.269,2.367l14.939-14.939A1.615,1.615,0,0,0,2344.278,3423.006Z" fill="#494b9f"/>
    <path id="Path_24238" data-name="Path 24238" d="M2344.643,3436.957l-.011-.011a1.61,1.61,0,0,0-2.27,0l-14.954,15.019a1.61,1.61,0,1,0,2.205,2.206l14.939-14.939A1.61,1.61,0,0,0,2344.643,3436.957Z" fill="#494b9f"/>
    <path id="Path_24239" data-name="Path 24239" d="M2358.413,3437.316a1.61,1.61,0,0,0-2.094,0h.048l-14.938,14.939a1.61,1.61,0,1,0,2.27,2.27l14.89-14.939A1.611,1.611,0,0,0,2358.413,3437.316Z" fill="#494b9f"/>
    <path id="Path_24240" data-name="Path 24240" d="M2385.134,3402.062a4.023,4.023,0,0,1-5.618,0,3.925,3.925,0,0,1,0-5.553v-.064a3.972,3.972,0,0,1,5.618,5.617Zm-2.788-10a7.148,7.148,0,1,0,7.149,7.146A7.148,7.148,0,0,0,2382.346,3392.066Z" fill="#494b9f"/>
  </g>
</svg>
